<svg width="30" height="30" viewBox="0 0 30 30" fill="none" xmlns="http://www.w3.org/2000/svg">
<path d="M15 3.75C8.79625 3.75 3.75 8.7975 3.75 15C3.75 21.2025 8.79625 26.25 15 26.25C21.2037 26.25 26.25 21.2025 26.25 15C26.25 8.7975 21.2037 3.75 15 3.75ZM15 23.75C10.1763 23.75 6.25 19.825 6.25 15C6.25 10.175 10.1763 6.25 15 6.25C19.8237 6.25 23.75 10.175 23.75 15C23.75 19.825 19.8237 23.75 15 23.75ZM15.8837 15L19.1912 11.6925C19.3078 11.575 19.3732 11.4162 19.3732 11.2506C19.3732 11.0851 19.3078 10.9263 19.1912 10.8088C19.0737 10.6922 18.9149 10.6268 18.7494 10.6268C18.5838 10.6268 18.425 10.6922 18.3075 10.8088L15 14.1163L11.6925 10.8075C11.5746 10.6937 11.4167 10.6307 11.2529 10.6321C11.089 10.6335 10.9322 10.6992 10.8164 10.8151C10.7005 10.931 10.6348 11.0878 10.6333 11.2516C10.6319 11.4155 10.6949 11.5734 10.8088 11.6912L14.1163 15L10.8088 18.3075C10.6914 18.4247 10.6254 18.5837 10.6253 18.7496C10.6252 18.9154 10.6909 19.0745 10.8081 19.1919C10.9253 19.3092 11.0843 19.3752 11.2502 19.3753C11.416 19.3755 11.5751 19.3097 11.6925 19.1925L15 15.8837L18.3075 19.1912C18.3651 19.251 18.434 19.2987 18.5102 19.3316C18.5864 19.3644 18.6684 19.3818 18.7513 19.3826C18.8343 19.3835 18.9166 19.3678 18.9935 19.3365C19.0704 19.3051 19.1402 19.2588 19.199 19.2002C19.2577 19.1416 19.3042 19.0719 19.3358 18.9952C19.3673 18.9184 19.3832 18.8361 19.3826 18.7531C19.382 18.6702 19.3649 18.5881 19.3323 18.5118C19.2996 18.4355 19.2521 18.3665 19.1925 18.3088L15.8837 15Z" fill="#D60117"/>
</svg>
