<svg width="315" height="81" viewBox="0 0 315 81" fill="none" xmlns="http://www.w3.org/2000/svg">
<path d="M33.0469 25.8594V18.6875H29.5312V25.8594H22.0312V2.75H29.5312V11.2812H33.0469V2.5625H41.4844V25.8594H33.0469ZM2.10938 14.3281C2.10938 10.5781 2.76562 6.35938 3.60938 3.5H12.5156C11.5781 6.21875 11.0156 9.35938 11.0156 12.8281C11.0156 16.3438 12.4219 16.9531 16.0781 16.9531C17.9062 16.9531 19.3125 16.7188 20.6719 16.4375L20.9062 24.5469C19.6406 24.9688 17.2969 25.2969 15.3281 25.2969C6.51562 25.2969 2.10938 22.3906 2.10938 14.3281ZM4.875 35.8438C4.875 30.4062 8.4375 27.5469 15.1875 27.5469H31.4062C38.1562 27.5469 41.7188 30.4062 41.7188 35.8438C41.7188 41.2812 38.1562 44.1406 31.4062 44.1406H15.1875C8.4375 44.1406 4.875 41.2812 4.875 35.8438ZM14.25 35.75C14.25 36.7812 15.0938 37.2031 16.6406 37.2031H29.9531C31.5 37.2031 32.3438 36.7812 32.3438 35.75C32.3438 34.7188 31.5 34.2969 29.9531 34.2969H16.6406C15.0938 34.2969 14.25 34.7188 14.25 35.75ZM46.0312 18.0312C50.7656 17.6094 54.6094 15.875 54.6094 12.4062V11.1875H46.875V3.5H71.7188V11.1875H63.9844V11.2812C63.9844 11.8438 63.9375 12.4062 63.8906 12.9688C65.2969 15.5469 70.3125 17.75 74.8125 18.4062L70.5 25.8125C66.2344 24.875 63.0938 23.2344 60.5625 20.7031C57.5625 24.2656 52.5938 26.6562 46.0312 26.9375V18.0312ZM49.4062 35.5625C49.4062 29.9375 53.1094 26.9844 60.1875 26.9844H75C82.0781 26.9844 85.7812 29.9375 85.7812 35.5625C85.7812 41.1875 82.0781 44.1406 75 44.1406H60.1875C53.1094 44.1406 49.4062 41.1875 49.4062 35.5625ZM58.7812 35.4688C58.7812 36.4062 59.625 36.8281 61.1719 36.8281H74.0156C75.5625 36.8281 76.4062 36.4062 76.4062 35.4688C76.4062 34.5312 75.5625 34.1094 74.0156 34.1094H61.1719C59.625 34.1094 58.7812 34.5312 58.7812 35.4688ZM76.1719 25.7656V2.5625H85.5469V9.40625H89.7656V17.2812H85.5469V25.7656H76.1719ZM92.1094 43.9062V35.9375H103.594V19.2031H112.969V35.9375H132.891V43.9062H92.1094ZM93.75 11.4688V3.5H130.828V13.5312C130.828 18.0781 129.938 25.7656 128.672 29.6094L119.391 29C120.609 24.9219 121.453 16.5781 121.453 11.4688H93.75ZM197.812 43.625V32.8438H182.109V24.875H209.531C210.656 21.5938 211.453 15.3594 211.453 11.4688H183.75V3.5H220.828V13.5312C220.828 16.6719 220.125 21.7344 219.047 24.875H222.891V32.8438H207.188V43.625H197.812ZM227.109 43.9062V35.9375H242.812V26.7031H252.188V35.9375H267.891V43.9062H227.109ZM228.234 27.4062V19.25C238.312 18.875 242.812 16.9531 242.812 12.875V11.2344H228.75V3.5H266.25V11.2344H252.188V12.2188C252.188 13.5312 252.047 14.75 251.672 15.9219C254.391 17.4688 261.141 18.7344 267.234 19.1562L266.016 27.2188C256.734 26.5156 251.438 25.0156 247.078 22.4375C243.141 25.3906 236.906 27.125 228.234 27.4062ZM303.047 43.6719V24.7812H300.188V43.4844H292.688V2.75H300.188V16.9062H303.047V2.5625H311.484V43.6719H303.047ZM272.344 11.4688V3.5H290.625V11.4688H282.281C281.625 15.9219 281.25 20.9375 281.25 26.5625C281.25 32.375 282.891 34.25 287.297 34.25C288.656 34.25 289.688 34.0625 290.672 33.7812L291.094 41.4688C289.828 41.8906 287.531 42.2188 285.609 42.2188C276.891 42.2188 272.531 38.2344 272.531 27.2656C272.531 21.9219 273.094 15.9219 273.797 11.4688H272.344Z" fill="black"/>
<path d="M142 20C142 12.458 142 8.686 144.344 6.344C146.686 4 150.458 4 158 4C165.542 4 169.314 4 171.656 6.344C174 8.686 174 12.458 174 20V26C174 33.542 174 37.314 171.656 39.656C169.314 42 165.542 42 158 42C150.458 42 146.686 42 144.344 39.656C142 37.314 142 33.542 142 26V20Z" stroke="#C0C0C0" stroke-width="1.875"/>
<path opacity="0.5" d="M168 42V44H166V42M150 42V44H148V42" stroke="#C0C0C0" stroke-width="1.875" stroke-linejoin="round"/>
<path opacity="0.5" d="M174 23H142" stroke="#C0C0C0" stroke-width="1.875"/>
<path d="M168 14V18M168 28V32" stroke="#C0C0C0" stroke-width="1.875" stroke-linecap="round"/>
<path d="M13.4213 78.02C11.2413 78.02 9.53125 77.52 8.29125 76.52C7.05125 75.52 6.43125 74.15 6.43125 72.41C6.43125 70.67 7.05125 69.3 8.29125 68.3C9.53125 67.3 11.2413 66.8 13.4213 66.8H23.1413C25.3213 66.8 27.0313 67.3 28.2713 68.3C29.5113 69.3 30.1313 70.67 30.1313 72.41C30.1313 74.15 29.5113 75.52 28.2713 76.52C27.0313 77.52 25.3213 78.02 23.1413 78.02H13.4213ZM18.5513 51.38H22.3913V56.45H25.6913V51.23H29.5313V66.05H25.6913V60.11H22.3913V65.75H18.5513V51.38ZM5.23125 51.53H9.19125V61.19H17.0513V64.43H5.23125V51.53ZM22.8713 74.78C23.8513 74.78 24.6213 74.56 25.1813 74.12C25.7613 73.7 26.0513 73.13 26.0513 72.41C26.0513 71.69 25.7613 71.12 25.1813 70.7C24.6213 70.26 23.8513 70.04 22.8713 70.04H13.6913C12.7113 70.04 11.9313 70.26 11.3513 70.7C10.7913 71.12 10.5113 71.69 10.5113 72.41C10.5113 73.13 10.7913 73.7 11.3513 74.12C11.9313 74.56 12.7113 74.78 13.6913 74.78H22.8713ZM40.7271 78.02C38.5471 78.02 36.8371 77.52 35.5971 76.52C34.3571 75.52 33.7371 74.15 33.7371 72.41C33.7371 70.67 34.3571 69.3 35.5971 68.3C36.8371 67.3 38.5471 66.8 40.7271 66.8H50.1471C52.3271 66.8 54.0371 67.3 55.2771 68.3C56.5171 69.3 57.1371 70.67 57.1371 72.41C57.1371 74.15 56.5171 75.52 55.2771 76.52C54.0371 77.52 52.3271 78.02 50.1471 78.02H40.7271ZM32.6871 62.21C33.6271 62.07 34.4871 61.8 35.2671 61.4C36.0671 61 36.7471 60.52 37.3071 59.96C37.8871 59.4 38.3371 58.77 38.6571 58.07C38.9771 57.37 39.1371 56.63 39.1371 55.85V54.77H32.8371V51.53H49.3371V54.77H43.3671V55.85C43.3671 57.37 43.9171 58.67 45.0171 59.75C46.1171 60.83 47.6071 61.57 49.4871 61.97V65.24C47.8071 64.94 46.2471 64.42 44.8071 63.68C43.3871 62.94 42.1971 62.04 41.2371 60.98C40.2371 62.18 39.0171 63.15 37.5771 63.89C36.1371 64.63 34.5071 65.16 32.6871 65.48V62.21ZM52.4571 51.23H56.5371V56.45H60.1371V60.11H56.5371V66.2H52.4571V51.23ZM49.8771 74.78C50.8571 74.78 51.6271 74.56 52.1871 74.12C52.7671 73.7 53.0571 73.13 53.0571 72.41C53.0571 71.69 52.7671 71.12 52.1871 70.7C51.6271 70.26 50.8571 70.04 49.8771 70.04H40.9971C40.0171 70.04 39.2371 70.26 38.6571 70.7C38.0971 71.12 37.8171 71.69 37.8171 72.41C37.8171 73.13 38.0971 73.7 38.6571 74.12C39.2371 74.56 40.0171 74.78 40.9971 74.78H49.8771ZM61.193 73.25H70.463V62.93H74.723V73.25H87.893V76.7H61.193V73.25ZM63.143 51.95H85.643V69.23H81.563V55.43H63.143V51.95ZM112.312 51.38H116.152V60.86H119.002V51.23H122.842V78.02H119.002V64.52H116.152V77.42H112.312V51.38ZM97.7918 72.86C98.4118 72.62 99.0018 72.2 99.5618 71.6C100.122 71 100.602 70.27 101.002 69.41C101.422 68.53 101.752 67.53 101.992 66.41C102.232 65.29 102.352 64.08 102.352 62.78V55.4H98.0918V51.98H110.512V55.4H106.462V62.78C106.462 65.4 106.852 67.51 107.632 69.11C108.412 70.69 109.532 71.85 110.992 72.59V76.16C109.632 75.7 108.362 74.98 107.182 74C106.002 73.02 105.092 71.84 104.452 70.46C103.752 71.86 102.812 73.09 101.632 74.15C100.472 75.21 99.1918 75.97 97.7918 76.43V72.86ZM125.998 73.85H132.418V69.53H128.248V58.82H146.368V55.22H128.248V51.8H150.448V62.18H132.328V66.11H151.048V69.53H146.878V73.85H152.698V77.3H125.998V73.85ZM142.618 73.85V69.53H136.678V73.85H142.618ZM162.296 65.18H182.366V55.43H164.246V51.95H186.446V65.18H188.996V68.63H177.776V78.02H173.516V68.63H162.296V65.18ZM192.752 70.91H211.412V69.83H192.752V66.86H202.022V65.18H190.802V61.97H217.502V65.18H206.282V66.86H215.552V73.76H196.892V74.93H216.152V77.9H192.752V70.91ZM192.302 58.31C193.462 58.25 194.562 58.14 195.602 57.98C196.642 57.8 197.572 57.59 198.392 57.35C199.232 57.09 199.932 56.79 200.492 56.45C201.072 56.09 201.472 55.7 201.692 55.28H192.752V52.1H201.962V50.06H206.342V52.1H215.552V55.28H206.612C206.832 55.7 207.222 56.09 207.782 56.45C208.362 56.79 209.062 57.09 209.882 57.35C210.722 57.59 211.662 57.8 212.702 57.98C213.742 58.14 214.842 58.25 216.002 58.31V61.34C213.522 61.2 211.252 60.89 209.192 60.41C207.132 59.93 205.452 59.18 204.152 58.16C202.852 59.18 201.172 59.93 199.112 60.41C197.052 60.89 194.782 61.2 192.302 61.34V58.31ZM241.771 51.38H245.611V61.19H248.611V51.23H252.451V78.02H248.611V64.85H245.611V77.42H241.771V51.38ZM228.301 51.98H239.551V55.4H232.261V72.56H240.271V75.98H228.301V51.98ZM255.607 62.39C256.547 62.25 257.407 61.98 258.187 61.58C258.987 61.18 259.667 60.7 260.227 60.14C260.807 59.58 261.257 58.95 261.577 58.25C261.897 57.55 262.057 56.81 262.057 56.03V54.77H255.757V51.53H272.257V54.77H266.287V56.03C266.287 57.55 266.837 58.85 267.937 59.93C269.037 61.01 270.527 61.75 272.407 62.15V65.42C270.727 65.12 269.167 64.6 267.727 63.86C266.307 63.12 265.117 62.22 264.157 61.16C263.157 62.36 261.937 63.33 260.497 64.07C259.057 64.81 257.427 65.34 255.607 65.66V62.39ZM256.957 67.4H279.457V78.02H275.377V70.76H256.957V67.4ZM275.377 51.23H279.457V56.45H283.057V60.11H279.457V66.35H275.377V51.23ZM284.413 63.53C285.353 63.39 286.213 63.11 286.993 62.69C287.793 62.25 288.473 61.73 289.033 61.13C289.613 60.51 290.063 59.83 290.383 59.09C290.703 58.33 290.863 57.54 290.863 56.72V54.77H284.563V51.53H301.063V54.77H295.093V56.72C295.093 58.34 295.643 59.74 296.743 60.92C297.843 62.1 299.333 62.89 301.213 63.29V66.56C299.533 66.26 297.973 65.71 296.533 64.91C295.113 64.11 293.923 63.18 292.963 62.12C291.963 63.32 290.743 64.32 289.303 65.12C287.863 65.92 286.233 66.48 284.413 66.8V63.53ZM286.663 68.6H290.743V74.54H309.463V77.9H286.663V68.6ZM304.783 60.38H299.863V56.9H304.783V51.23H308.863V70.85H304.783V60.38Z" fill="#C0C0C0"/>
</svg>
